<svg width="128" height="128" viewBox="0 0 128 128" fill="none" xmlns="http://www.w3.org/2000/svg">
  <path d="M64 10L24 24V54C24 80.1 41.2 104.9 64 110C86.8 104.9 104 80.1 104 54V24L64 10Z" fill="#111827"/>
  <path d="M58.8 33.6C50.9 33.6 44.5 40 44.5 47.9C44.5 49.5 44.8 51 45.2 52.5C41.4 56.2 39 61.3 39 67C39 68.4 39.2 69.8 39.5 71.2C45.8 79.7 54.4 86.4 64 89.9C73.6 86.4 82.2 79.7 88.5 71.2C88.8 69.8 89 68.4 89 67C89 56.8 80.8 48.6 70.6 48.6C68.7 48.6 66.8 48.9 65.1 49.4C62.9 45 58.3 41.9 53 41.9C52.8 41.9 52.7 41.9 52.5 41.9C54.2 36.9 58.2 33.6 58.8 33.6Z" fill="#F5F5F7"/>
  <path d="M78.8 69.8C77.1 71 75.1 72 72.9 72.7C71.5 73.1 70 73.4 68.4 73.6C64.7 74 61 73.7 57.5 72.7C55.3 72 53.3 71 51.6 69.8C50.8 72.6 50.5 75.8 51.3 79C55.3 81.5 59.6 83.4 64 84.8C68.4 83.4 72.7 81.5 76.7 79C77.5 75.8 77.2 72.6 76.4 69.8H78.8Z" fill="#F5F5F7"/>
  <path d="M74.8 61.1C74.8 63.9 70.1 66.2 64.3 66.2C58.5 66.2 53.8 63.9 53.8 61.1C53.8 58.3 58.5 56 64.3 56C70.1 56 74.8 58.3 74.8 61.1Z" fill="#111827"/>
</svg>
